HIERARCHY
ROOT Hips
{
  OFFSET 0.0 0.0 0.0
  CHANNELS 6 XPOSITION YPOSITION ZPOSITION ZROTATION XROTATION YROTATION 
  JOINT RightUpLeg
  {
    OFFSET -0.089458 -0.0866707 0.00101652
    CHANNELS 3 ZROTATION XROTATION YROTATION 
    JOINT RightLeg
    {
      OFFSET 0.0 -0.444227 0.013727
      CHANNELS 3 ZROTATION XROTATION YROTATION 
      JOINT RightFoot
      {
        OFFSET 0.00253549 -0.420924 -0.0146059
        CHANNELS 3 ZROTATION XROTATION YROTATION 
        JOINT RightToes
        {
          OFFSET 0.0004 -0.0441509 0.084991
          CHANNELS 3 ZROTATION XROTATION YROTATION 
          End Site
          {
            OFFSET -0.0008 -0.00137448 0.0977979
          }
        }
      }
    }
  }
  JOINT Spine
  {
    OFFSET 0.0 0.118905 0.0
    CHANNELS 3 ZROTATION XROTATION YROTATION 
    JOINT Spine1
    {
      OFFSET 0.0 0.256574 0.00127663
      CHANNELS 3 ZROTATION XROTATION YROTATION 
      JOINT HEad
      {
        OFFSET 0.0 0.0873416 0.00011341
        CHANNELS 3 ZROTATION XROTATION YROTATION 
        End Site
        {
          OFFSET -0.0029 0.127742 0.0251395
        }
      }
      JOINT LeftShoulder1
      {
        OFFSET 0.0899 -0.00362252 -0.0022
        CHANNELS 3 ZROTATION XROTATION YROTATION 
        JOINT LeftArm
        {
          OFFSET 0.102827 -3.37999e-005 0.00322123
          CHANNELS 3 ZROTATION XROTATION YROTATION 
          JOINT LeftForeArm
          {
            OFFSET 0.262597 0.00099144 -0.0142434
            CHANNELS 3 ZROTATION XROTATION YROTATION 
            JOINT LeftHand
            {
              OFFSET 0.220902 0.00085362 0.0102216
              CHANNELS 3 ZROTATION XROTATION YROTATION 
              End Site
              {
                OFFSET 0.13419 -0.006 0.0150291
              }
            }
          }
        }
      }
      JOINT RightShoulder
      {
        OFFSET -0.0899 -0.00362252 -0.0022
        CHANNELS 3 ZROTATION XROTATION YROTATION 
        JOINT RightArm
        {
          OFFSET -0.102827 -3.38e-005 0.00322123
          CHANNELS 3 ZROTATION XROTATION YROTATION 
          JOINT RightForeArm
          {
            OFFSET -0.26364 0.00099144 -0.0142434
            CHANNELS 3 ZROTATION XROTATION YROTATION 
            JOINT RightHand
            {
              OFFSET -0.220324 0.00085362 0.0102216
              CHANNELS 3 ZROTATION XROTATION YROTATION 
              End Site
              {
                OFFSET -0.133284 -0.006 0.0150291
              }
            }
          }
        }
      }
    }
  }
  JOINT LeftUpLeg
  {
    OFFSET 0.089458 -0.0866707 0.00101652
    CHANNELS 3 ZROTATION XROTATION YROTATION 
    JOINT LeftLeg
    {
      OFFSET 0.0 -0.444227 0.013727
      CHANNELS 3 ZROTATION XROTATION YROTATION 
      JOINT LeftFoot
      {
        OFFSET -0.00253549 -0.420924 -0.0146059
        CHANNELS 3 ZROTATION XROTATION YROTATION 
        JOINT LeftToes
        {
          OFFSET -0.0004 -0.0441509 0.084991
          CHANNELS 3 ZROTATION XROTATION YROTATION 
          End Site
          {
            OFFSET 0.0008 -0.00047448 0.0977979
          }
        }
      }
    }
  }
}
MOTION
Frames: 6
Frame Time: 0.033333
1.6674022081 1.23114723397 -1.10782775375 3.90318886772 1.36124410842 82.610297898 1.65826523649 -20.2577468518 5.19149445321 -1.20312234765 53.3364691154 -12.5728363468 1.41141291509 -5.57664668607 -0.183291047884 0.0462047989973 0.000530889001377 0.662642008108 -10.0033943131 10.1966502468 -1.29431134949 4.02525288592 3.93929837031 -2.99001861578 -4.29680797383 13.2801886665 -0.822869281413 -28.9217291158 -3.03872021244 12.1719622991 -77.7201829806 -34.2705219719 -42.981301277 -166.367261614 76.2705846123 161.860170045 8.59196304188 8.86860704761 -9.97187982028 30.1547729214 -1.55807351172 -8.40266093394 44.2039153837 -17.2530766265 6.67779484303 6.24157542017 56.4540030941 9.75046216286 -2.62962475145 9.76611610267 3.04874543604 -7.11596086979 -6.4790453028 -0.200109721704 0.281522254898 21.3077501254 12.5973849004 3.8482707317 -15.3823868505 0.342752819734 -1.31670501097e-009 8.75249891372e-006 -1.47223630164e-008 
1.69103117947 1.23409085577 -1.10794973905 3.95348638077 1.04934501408 82.5260065335 2.12786710219 -21.9518813603 5.05491286793 -1.03656231505 47.999540298 -13.0955575542 1.40675771429 -5.31323531809 -0.185071432741 0.0462047989973 0.000530889001377 0.662642008108 -10.5548339046 10.7381391065 -1.69566276335 4.8905524764 3.80592654705 -3.6735489432 -4.14962422741 13.3048652862 -0.679549927955 -28.3698583686 -2.82170610605 11.6799641364 -77.8093237795 -32.5888440208 -44.4407658536 -171.647708182 78.4588337884 165.746752589 8.6939471577 8.8377106869 -10.2285958953 29.903893243 -1.64603546261 -8.68010151048 42.4493422388 -17.661796854 4.56965140617 5.71708946268 55.234694799 10.3474505784 -2.57118309159 9.77077173036 3.02436763712 -6.84455476538 -4.2504104988 0.224974771914 0.218189139056 20.2537033798 12.256158041 3.51219340802 -16.2356038364 0.352567374684 -1.31670501097e-009 8.75249891372e-006 -1.47223630164e-008 
1.71515290803 1.23536579167 -1.10797640932 3.95792301552 0.847393715958 82.4755997374 2.25952134631 -23.0151147103 4.33964948163 -0.944775351493 41.2348116609 -12.2525209653 1.74027254309 -5.04236709108 -0.194825129638 0.0462047989973 0.000530889001377 0.662642008108 -10.8432249819 11.1811417609 -2.052340151 5.372563195 3.62459313544 -4.19601231093 -4.0021873371 13.4210741247 -0.771529844352 -27.9666415661 -2.65104251714 11.2752199328 -77.8925223138 -31.257544529 -45.8791900324 -179.302560732 80.4318227226 172.193126108 8.66504265091 8.83205016763 -10.3707560376 29.6703485847 -1.70305270786 -8.87215276956 40.838476274 -18.4045782186 2.56192306262 5.33697876319 54.5267559368 10.701674434 -2.54508750009 9.7744993061 2.86739409518 -6.74386454353 -2.23430706266 0.439482278925 0.200955758027 19.5450131968 12.0796761981 3.36455417336 -17.2235343508 0.377971809735 -1.31670501097e-009 8.75249891372e-006 -1.47223630164e-008 
1.74042116027 1.23488433333 -1.10766296589 3.89058247295 0.820037100785 82.3501359926 2.21944307693 -23.5386145592 3.67089071895 -0.84915814592 33.7278224612 -10.6436810053 2.4146208551 -5.23733227962 -0.206817234274 0.0462047989973 0.000530889001377 0.662642008108 -11.0134930602 11.3124145817 -2.30364863722 5.59965930094 3.49852193062 -4.50633427191 -3.89105674421 13.5097427867 -1.00484259638 -27.7678284197 -2.56888003718 11.0779282111 -77.9152258626 -30.0112911375 -47.2564908483 172.008833944 81.8752261094 179.88774402 8.72114155588 8.81481760035 -10.5114536657 29.422091699 -1.72762271258 -8.9783997772 39.3190562969 -19.7119344824 0.659373976033 5.2106475843 54.3499325844 10.5893391665 -2.47349793952 9.78185285851 2.70386933461 -6.92964953093 -0.276676155641 0.298201203325 0.256399058222 18.8740188278 12.2747515235 3.27445778834 -18.1661807109 0.403354873764 -1.31670501097e-009 8.75249891372e-006 -1.47223630164e-008 
1.76697698041 1.23311576923 -1.10686231752 3.71743888503 0.849252221104 82.5449193273 2.06068045231 -23.6178345083 3.3819547206 -0.710623339975 26.1847971833 -9.6400205653 3.01365341819 -5.77419155168 -0.210000449272 0.0462047989973 0.000530889001377 0.662642008108 -11.0758040222 11.1715897414 -2.60767978053 5.782760024 3.43150048595 -4.8260669529 -3.82204920859 13.5072446451 -1.24785272292 -27.5035444951 -2.48836341936 10.8968385518 -77.8899951438 -28.783376804 -48.2179970684 160.966835943 82.677561601 -169.781413633 8.76614823364 8.80883947728 -10.5087506183 29.2648300084 -1.78906517336 -9.17584859327 37.7644813361 -20.8945441711 -0.908084855932 5.30037236434 54.8839167737 10.2202050079 -2.34410427456 9.79201703377 2.60878563084 -7.17654464773 1.47465267612 0.0509032087541 0.472437408061 18.5644370886 12.2519352766 3.01223060441 -19.0974155326 0.41036059346 -1.31670501097e-009 8.75249891372e-006 -1.47223630164e-008 
1.79496693611 1.23035807372 -1.10543815053 3.51596964886 0.940488980902 83.0883974796 1.81581134038 -23.6836741168 3.16313061407 -0.748013503039 20.2336260387 -9.30196889007 2.90493665684 -6.5204840605 -0.193367030993 0.0462047989973 0.000530889001377 0.662642008108 -11.1864855302 10.9323512667 -2.91168680473 6.12521375615 3.36395397048 -5.18134308456 -3.72275490664 13.4476290464 -1.48701307736 -27.2977116218 -2.3975882843 10.6703938752 -77.8168028366 -27.6439526938 -48.7964321288 150.656364863 82.9956093597 -159.830961824 9.06540870326 8.7688256678 -10.4866020224 29.1969106073 -1.86093327758 -9.38971462279 36.2669555304 -21.7796171593 -2.18628058751 5.54710569103 55.740688873 9.73471174664 -2.24272676492 9.80029522305 2.48974653267 -7.37053141167 3.13752146011 0.0666265009916 0.757075990129 18.5541542388 11.6646252391 2.65044316804 -20.0185724101 0.401630891329 -1.31670501097e-009 8.75249891372e-006 -1.47223630164e-008 
